<?xml version="1.0" standalone="no"?>
<!DOCTYPE svg PUBLIC "-//W3C//DTD SVG 20010904//EN"
 "http://www.w3.org/TR/2001/REC-SVG-20010904/DTD/svg10.dtd">
<svg version="1.0" xmlns="http://www.w3.org/2000/svg"
 width="800.000000pt" height="534.000000pt" viewBox="0 0 800.000000 534.000000"
 preserveAspectRatio="xMidYMid meet">

<g transform="translate(0.000000,534.000000) scale(0.100000,-0.100000)"
fill="#000000" stroke="none">
<path d="M0 2670 l0 -2670 4000 0 4000 0 0 2670 0 2670 -4000 0 -4000 0 0
-2670z m4198 945 c256 -54 480 -210 617 -429 l47 -76 38 21 c20 12 68 45 106
75 73 56 87 54 65 -7 -10 -28 -9 -30 12 -23 50 15 148 74 245 146 56 43 102
76 102 75 0 -14 -36 -119 -50 -147 -26 -52 -35 -84 -20 -75 6 4 102 11 213 15
208 9 304 24 478 74 46 13 86 23 88 21 2 -2 -7 -18 -19 -35 -12 -17 -21 -32
-19 -34 2 -1 110 1 239 5 280 8 465 38 749 124 46 14 86 23 89 21 2 -3 -10
-25 -28 -51 -18 -26 -30 -49 -27 -51 10 -11 491 113 592 152 15 6 12 -2 -15
-36 -83 -106 -204 -207 -407 -341 -150 -99 -151 -96 11 -63 38 8 72 12 75 8
10 -10 -117 -120 -209 -181 -47 -32 -152 -92 -235 -135 l-150 -78 105 0 105 0
-30 -25 c-78 -63 -244 -137 -442 -195 -132 -39 -214 -54 -373 -68 -84 -8 -84
-8 87 -16 l172 -8 -27 -23 c-73 -61 -211 -124 -387 -175 -93 -27 -132 -33
-255 -38 -140 -5 -143 -6 -97 -18 27 -7 51 -15 54 -17 7 -8 -99 -45 -168 -58
-35 -7 -134 -12 -219 -12 -135 0 -168 3 -254 26 -55 15 -142 47 -193 72 l-94
46 -72 -73 c-128 -130 -284 -223 -454 -270 -116 -32 -363 -32 -483 0 -201 53
-427 203 -527 351 -2 3 -47 -16 -101 -42 -106 -51 -206 -81 -323 -96 -103 -14
-334 2 -420 29 -95 30 -100 36 -43 52 l49 14 -135 7 c-74 3 -162 13 -195 22
-188 49 -360 121 -437 182 l-37 30 97 6 c53 4 129 8 167 8 66 2 63 2 -50 15
-144 16 -268 43 -413 91 -126 41 -291 118 -346 162 l-39 31 104 0 104 0 -144
75 c-80 42 -188 104 -240 139 -104 69 -220 170 -209 181 5 6 74 -5 198 -31 14
-3 -42 39 -125 93 -127 84 -237 167 -306 233 -30 28 -119 133 -116 136 2 2 55
-12 118 -32 144 -44 479 -128 486 -121 3 3 -9 26 -27 52 -18 26 -30 49 -27 51
3 3 43 -6 88 -20 283 -86 476 -118 757 -125 127 -3 232 -4 232 -3 0 2 -9 17
-21 34 -12 16 -19 31 -17 33 2 3 50 -8 106 -24 157 -45 327 -70 513 -74 l166
-4 -32 76 c-17 42 -35 91 -38 108 l-6 32 88 -67 c98 -74 176 -123 234 -147
l39 -16 -7 33 c-3 18 -9 42 -12 52 -4 14 13 5 58 -31 65 -51 168 -118 172
-112 44 77 135 193 191 247 162 154 330 231 581 266 50 7 212 -4 283 -19z"/>
</g>
</svg>
