<?xml version="1.0" standalone="no"?>
<!DOCTYPE svg PUBLIC "-//W3C//DTD SVG 20010904//EN"
 "http://www.w3.org/TR/2001/REC-SVG-20010904/DTD/svg10.dtd">
<svg version="1.0" xmlns="http://www.w3.org/2000/svg"
 width="800.000000pt" height="534.000000pt" viewBox="0 0 800.000000 534.000000"
 preserveAspectRatio="xMidYMid meet">
<metadata>
Created by potrace 1.16, written by Peter Selinger 2001-2019
</metadata>
<g transform="translate(0.000000,534.000000) scale(0.100000,-0.100000)"
fill="#000000" stroke="none">
<path d="M0 2670 l0 -2670 4000 0 4000 0 0 2670 0 2670 -4000 0 -4000 0 0
-2670z m4240 934 c177 -45 355 -152 474 -285 54 -60 109 -137 110 -153 0 -6
10 -21 22 -34 l22 -23 73 51 c41 28 89 62 107 76 31 25 32 26 32 6 0 -11 -5
-33 -10 -47 -9 -24 -8 -26 12 -20 48 14 157 80 251 151 90 68 97 72 91 47 -5
-23 -52 -148 -70 -189 -3 -7 12 -8 48 -3 29 4 110 8 179 8 140 1 283 23 449
70 58 16 106 28 109 26 2 -2 -7 -18 -19 -35 -12 -17 -21 -32 -19 -34 2 -1 110
1 239 5 177 5 263 12 350 28 147 28 301 65 402 97 44 14 82 23 85 20 3 -2 -9
-25 -27 -51 -18 -26 -30 -49 -27 -51 10 -10 490 113 593 153 14 5 10 -5 -16
-37 -84 -108 -239 -235 -437 -361 -55 -35 -100 -65 -99 -66 1 -2 49 6 106 17
57 11 106 17 109 14 10 -10 -118 -121 -209 -181 -47 -32 -152 -92 -235 -135
l-150 -77 104 -3 103 -3 -43 -31 c-161 -116 -488 -223 -754 -247 l-140 -13
178 -8 177 -8 -41 -33 c-77 -61 -241 -130 -424 -180 -35 -9 -121 -19 -205 -22
-80 -3 -140 -7 -135 -9 6 -2 30 -8 55 -14 l45 -12 -35 -18 c-69 -35 -185 -53
-355 -53 -141 0 -171 3 -258 26 -54 14 -141 46 -194 71 l-96 46 -80 -80 c-129
-130 -279 -217 -450 -263 -68 -18 -109 -22 -237 -22 -137 1 -166 4 -252 27
-191 53 -386 180 -496 322 l-22 29 -98 -46 c-184 -87 -341 -115 -552 -97 -117
10 -232 35 -269 59 -10 7 -1 13 35 23 l49 14 -135 7 c-140 6 -189 16 -350 68
-134 44 -323 144 -313 165 3 5 52 8 238 14 l90 3 -120 13 c-143 16 -264 42
-411 90 -118 38 -311 128 -359 169 l-30 25 105 0 105 0 -151 79 c-83 42 -191
105 -241 139 -101 70 -211 166 -201 177 5 6 74 -5 198 -31 14 -3 -42 39 -125
94 -177 116 -305 221 -374 305 -28 34 -49 62 -48 64 2 1 55 -13 118 -33 144
-44 479 -128 486 -121 3 3 -9 26 -27 52 -18 26 -30 49 -27 51 3 3 43 -6 88
-20 283 -86 476 -118 757 -125 127 -3 232 -4 232 -3 0 2 -9 17 -21 34 -12 16
-19 31 -17 33 2 3 36 -5 74 -16 123 -36 297 -70 384 -74 47 -3 140 -7 206 -9
l122 -5 -33 77 c-17 42 -35 92 -38 109 l-6 33 82 -63 c91 -69 185 -129 242
-153 l37 -15 -7 33 c-3 18 -9 42 -12 52 -4 14 13 5 58 -31 67 -52 168 -118
173 -112 2 2 23 36 48 74 119 183 306 328 508 393 176 57 361 62 540 16z"/>
<path d="M4545 2829 c-4 -6 -5 -12 -2 -15 2 -3 7 2 10 11 7 17 1 20 -8 4z"/>
<path d="M4492 2800 c0 -14 2 -19 5 -12 2 6 2 18 0 25 -3 6 -5 1 -5 -13z"/>
</g>
</svg>
